<?xml version="1.0" encoding="UTF-8" standalone="no"?>
<!-- Created with Inkscape (http://www.inkscape.org/) -->

<svg
   width="200mm"
   height="48.155998mm"
   viewBox="0 0 755.90552 182.00693"
   version="1.1"
   id="svg1"
   xml:space="preserve"
   xmlns="http://www.w3.org/2000/svg"
   xmlns:svg="http://www.w3.org/2000/svg"><defs
     id="defs1" /><g
     id="layer1"><g
       id="g3"
       transform="matrix(0.43055529,0,0,0.43055529,179.36657,-197.84262)"><path
         style="fill:#db9e26;stroke-width:1.5622"
         d="m 963.10938,764.83521 -10.5108,-1.33406 -5.89226,-1.90783 -5.89225,-1.90785 -7.32269,-3.669 -7.32269,-3.66901 -5.7761,-5.88145 -5.77609,-5.88146 -4.36045,-9.13479 -4.36044,-9.13478 -1.88794,-11.17377 -1.88795,-11.17377 0.90737,-16.40307 0.90737,-16.40306 3.23322,-12.49758 3.23323,-12.49757 5.42702,-11.45476 5.42704,-11.45475 9.77954,-9.77162 9.77956,-9.7716 8.61604,-3.21916 8.61604,-3.21914 14.94922,-1.88166 14.94922,-1.88167 11.58418,1.79253 11.58413,1.79254 8.2503,3.77144 8.2503,3.77144 9.1946,8.77014 9.1945,8.77014 5.5848,11.30261 5.5847,11.3026 3.1289,12.23403 3.129,12.23402 1.7565,17.35706 1.7566,17.35709 -1.6505,10.5813 -1.6505,10.58131 -4.0879,8.94615 -4.0879,8.94616 -4.9925,5.24746 -4.9926,5.24748 -5.8293,3.73648 -5.8293,3.73648 -11.8799,3.98798 -11.8799,3.98796 -18.22131,0.60152 -18.22129,0.60154 z m 56.59022,-43.08148 5.4624,-3.20885 3.5203,-5.22371 3.5202,-5.2237 v -25.2583 -25.25832 l -1.6791,-9.08326 -1.6791,-9.08327 -4.1494,-8.77836 -4.1494,-8.77836 -6.2785,-6.28606 -6.2785,-6.28606 -7.4034,-3.47767 -7.40338,-3.47767 -10.56186,0.0156 -10.56186,0.0156 -7.81098,3.64509 -7.81098,3.64509 -5.79058,6.42354 -5.79057,6.42353 -3.1995,6.27153 -3.1995,6.27154 -2.33585,8.96794 -2.33586,8.96795 v 25.49821 25.4982 l 2.40288,5.75089 2.40288,5.75088 2.67426,3.00447 2.67426,3.00444 4.68659,2.12956 4.68659,2.12955 30.46284,-0.39023 30.46282,-0.39025 z m 171.8471,43.19235 -5.4677,-1.15112 -5.1081,-2.67863 -5.1079,-2.6786 -4.6711,-6.44839 -4.6713,-6.44839 -2.3278,-7.83888 -2.3279,-7.83887 0.019,-13.38569 0.019,-13.38568 2.0824,-7.81903 2.0824,-7.81904 3.1307,-7.02183 3.1305,-7.02184 7.1123,-7.86963 7.1126,-7.86964 7.917,-4.30904 7.9172,-4.30905 10.1609,-2.12595 10.161,-2.12596 28.1637,0.87 28.1638,0.86999 1.5823,1.90669 1.5825,1.90669 0.9648,53.70727 0.9647,53.70726 -4.2356,3.90549 -4.2357,3.90549 -39.3226,0.25875 -39.3225,0.25873 z m 54.2007,-38.76479 3.4426,-2.25572 1.5413,-4.94918 1.5411,-4.94918 -1.1282,-19.68237 -1.1283,-19.68235 -2.6971,-4.11634 -2.697,-4.11634 -4.0003,-1.004 -4.0001,-1.00399 -11.6981,0.75075 -11.698,0.75073 -6.4235,4.52449 -6.4233,4.5245 -3.6349,6.88504 -3.6347,6.88505 0.016,7.95582 0.016,7.95583 3.7068,7.96077 3.7068,7.96075 5.9113,3.65337 5.9112,3.65338 5.5982,0.93263 5.5981,0.93265 9.3664,-0.65528 9.3665,-0.65528 z m -167.8506,36.87147 -1.9528,-2.00343 v -55.24824 -55.24825 l 1.5812,-2.95447 1.5812,-2.95446 5.7671,-1.0819 5.7668,-1.0819 11.253,2.80216 11.2528,2.80218 17.0934,-1.96886 17.0933,-1.96886 3.3421,1.78865 3.342,1.78865 1.0026,3.99482 1.0028,3.99482 -0.7986,9.94821 -0.7986,9.94822 -3.0027,5.1414 -3.0027,5.14137 -7.7277,1.09203 -7.7277,1.09202 -5.0312,0.93029 -5.0312,0.93027 -4.945,4.16094 -4.945,4.16094 -2.0869,4.99488 -2.0871,4.99487 -1.7283,25.5409 -1.7282,25.54091 -2.2262,2.2925 -2.2261,2.29251 -10.5398,0.57014 -10.5398,0.57012 z"
         id="path148" /><path
         style="fill:#f1c91d"
         d="m 749.18953,835.15996 -0.65915,-1.06653 0.44877,-0.44877 0.44876,-0.44876 5.90137,-1.49144 5.90137,-1.49144 6.5,-2.69939 6.5,-2.69939 5.73592,-3.40237 5.73592,-3.40236 8.98007,-8.45346 8.98007,-8.45345 4.42328,-6.32756 4.42327,-6.32756 3.55483,-6.36049 3.55484,-6.3605 3.57908,-9.27233 3.57908,-9.27232 3.01112,-11.67829 3.01113,-11.67829 1.65121,-10.54939 1.65122,-10.54938 0.0212,-19 0.0212,-19 -1.71371,-10.5 -1.7137,-10.5 -2.96623,-11.5 -2.96623,-11.5 -2.99198,-7.72344 -2.99198,-7.72344 -4.65381,-8.27656 -4.65381,-8.27656 -4.07323,-5.5 -4.07323,-5.5 -6.04237,-6.3293 -6.04237,-6.3293 -6.51534,-4.80244 -6.51535,-4.80244 -6.20341,-3.10914 -6.20342,-3.10914 -8.65845,-2.50912 -8.65845,-2.50912 -11.13813,0.0148 -11.13814,0.0148 -6.33289,1.49295 -6.33289,1.49295 -13.79794,7.00119 -13.79793,7.00118 -11.14941,12.01894 -11.14941,12.01893 -3.37357,5.27374 -3.37358,5.27374 -2.47502,5.94841 -2.47502,5.94841 -2.61174,9 -2.61174,9 -2.05263,9.87499 -2.05264,9.875 -1.44609,13.625 -1.44609,13.62501 -0.12832,6.5 -0.12833,6.5 -0.78274,-4.63297 -0.78274,-4.63297 -0.47026,-9.8475 -0.47025,-9.84751 0.83498,-11.18759 0.83499,-11.18758 2.05437,-10.08097 2.05437,-10.08098 3.07671,-9.25096 3.07671,-9.25097 5.07226,-10.5 5.07226,-10.5 9.90242,-16.84607 9.90241,-16.84607 -0.59364,-1.54699 -0.59364,-1.547 -6.94995,0.58266 -6.94996,0.58266 -8.27653,4.15874 -8.27653,4.15875 -7.88332,5.65166 -7.88333,5.65166 -8.2632,8.29409 -8.2632,8.29408 -4.47972,6.70592 -4.47971,6.70591 -3.02859,6.03295 -3.02859,6.03296 -2.08294,6.34494 -2.08293,6.34494 -1.06563,8.62211 -1.06562,8.6221 -1.87645,6.5 -1.87645,6.5 -0.76825,17 -0.76825,17 0.26994,7 0.26993,7 1.46614,7 1.46614,7 3.88161,11.61228 3.88161,11.61228 3.99266,7.94101 3.99266,7.941 6.17491,9.23159 6.17491,9.23159 8.22293,8.24146 8.22293,8.24147 6.9399,3.63105 6.93991,3.63105 4.5,1.21229 4.5,1.2123 7.5,1.17282 7.5,1.17282 v 1.41273 1.41274 l -4,0.88315 -4,0.88316 -10.5073,-0.5511 -10.50731,-0.55109 -6.99269,-1.48747 -6.9927,-1.48747 -6,-2.08114 -6,-2.08115 -6.98231,-3.54625 -6.98231,-3.54625 -6.51769,-4.86024 -6.51769,-4.86023 -7.09467,-7.3122 -7.09466,-7.3122 -4.58764,-6 -4.58764,-6 -5.57312,-9.45784 -5.57313,-9.45784 -4.00251,-10.23711 -4.00252,-10.23712 -2.40424,-10.30505 -2.40425,-10.30504 -1.27227,-9.5 -1.27228,-9.5 0.004,-18 0.004,-18 1.26839,-7.5 1.26839,-7.5 1.88539,-7.5 1.88538,-7.5 3.07449,-7.93884 3.07448,-7.93884 4.05222,-8.06116 4.05222,-8.06116 6.51747,-10.83973 6.51747,-10.83974 4.80297,-5.77134 4.80296,-5.77135 6.7721,-5.07157 6.7721,-5.07158 8.55705,-4.88467 8.55706,-4.88467 11.11422,-5.10056 11.11421,-5.10055 6.74112,-2.08212 6.74112,-2.08212 h 3.23695 3.23695 l 23.90772,6.07068 23.90771,6.07068 7,-0.42887 7,-0.42886 7.69033,-2.68156 7.69033,-2.68156 6.80967,-1.44289 6.80967,-1.44289 9.29216,-0.0174 9.29216,-0.0174 7.59572,1.56894 7.59572,1.56894 5.11212,1.99102 5.11212,1.99102 7,3.58327 7,3.58328 6.5,4.56565 6.5,4.56566 11.01348,11.04111 11.01347,11.04111 6.727,9.5 6.727,9.5 6.89028,13.53606 6.89028,13.53606 3.55782,11.00546 3.55783,11.00546 2.00757,9.95848 2.00758,9.95848 1.14351,12.5 1.14351,12.5 -0.65678,11.5 -0.65679,11.5 -1.50919,10 -1.50919,10 -1.99436,8 -1.99436,8 -3.03578,9 -3.03578,9 -6.26914,13 -6.26914,13 -6.32246,9.5 -6.32246,9.5 -9.55195,9.53319 -9.55195,9.53319 -6,3.93798 -6,3.93798 -6.5,3.29846 -6.5,3.29845 -9.5,3.00509 -9.5,3.0051 -9,1.47126 -9,1.47126 -6.19098,0.004 -6.19098,0.004 z"
         id="path150" /></g><g
       id="g2"
       transform="matrix(0.36398034,0,0,0.36398034,-155.13857,-42.839232)"><path
         style="fill:#f1c91d"
         d="m 733.44752,415.55545 -1.55598,-3.96115 h -5.61598 -5.61598 l -2.03237,-4.74132 -2.03236,-4.74131 -1.41732,-6.00869 -1.41732,-6.00868 -0.0148,-5.16091 -0.0148,-5.1609 1.85343,-5.95508 1.85343,-5.95508 7.09873,-10.61593 7.09873,-10.61593 0.60686,0.98191 0.60686,0.98192 h 2.28599 2.286 l 1.81395,-2.00439 1.81395,-2.0044 6.52085,3.58431 6.52085,3.58431 5.70753,4.39185 5.70753,4.39184 2.66045,3.16177 2.66046,3.16177 2.06313,4.04408 2.06314,4.04407 0.52518,5.79184 0.52519,5.79183 -1.23079,6.25596 -1.23078,6.25596 -1.86353,3.65281 -1.86352,3.65282 -4.66914,4.10994 -4.66914,4.10994 -3.62267,1.00627 -3.62267,1.00627 -7.02749,0.006 -7.0275,0.006 -2.08607,1.46115 -2.08608,1.46114 z"
         id="path2" /><path
         style="fill:#f1c91d"
         d="m 638.23065,449.40887 -3,-1.12896 -3.68045,-2.31145 -3.68046,-2.31145 -2.65653,-2.78135 -2.65653,-2.78136 -2.35053,-3.63114 -2.35052,-3.63114 -1.68142,-5.78389 -1.68142,-5.78388 0.45521,-7.58498 0.4552,-7.58497 2.71452,-5.317 2.71452,-5.31699 3.69921,-3.597 3.6992,-3.597 4.5,-2.05639 4.5,-2.0564 6.5,0.0277 6.5,0.0277 5.65539,2.59407 5.65538,2.59408 4.18146,4.30871 4.18147,4.30871 1.93421,3.79138 1.93422,3.79137 1.59687,6.2332 1.59687,6.23319 -0.61976,5.92946 -0.61975,5.92945 -2.34929,5.13154 -2.34929,5.13153 -3.05621,3.48083 -3.05621,3.48082 -4.84268,2.44529 -4.84268,2.44528 -7,0.25003 -7,0.25002 z"
         id="path1" /><path
         style="fill:#94c719"
         d="m 647.54315,500.91118 1.3125,-0.52521 0.60417,0.60416 0.60417,0.60417 -1.91667,-0.079 -1.91667,-0.0789 z m 5.9375,-1.02261 2.25,-0.43337 2.25,0.43337 2.25,0.43336 h -4.5 -4.5 z m -28.1665,-4.33501 -5.91651,-0.92893 -5.92161,-1.51705 -5.92161,-1.51705 -7.66188,-3.06707 -7.66189,-3.06708 -7.5,-4.09451 -7.5,-4.09451 -7.49988,-5.08653 -7.49988,-5.08653 -12.09986,-12 -12.09986,-12 -5.76843,-8.78902 -5.76843,-8.78902 -5.2749,-10.71098 -5.27489,-10.71098 -6.04317,-14 -6.04317,-14 -2.59008,-8.95268 -2.59008,-8.95267 -1.10483,-10.04733 -1.10483,-10.04732 0.56618,-20 0.56618,-20 1.55317,-8.653 1.55317,-8.653 3.57749,-11.80248 3.5775,-11.80249 4.91184,-10.04451 4.91185,-10.04452 4.562,-5.78175 4.562,-5.78175 6.03902,-4.71825 6.03902,-4.71825 5.42144,-3.22371 5.42143,-3.2237 v 0.54506 0.54506 l -7.61402,15.67864 -7.61402,15.67865 -2.43168,6.86202 -2.43167,6.86201 -2.10181,9.63799 -2.10182,9.63798 -0.0426,17.5 -0.0426,17.5 1.68091,9 1.68091,9 2.06679,7.5 2.06678,7.5 3.53333,10 3.53334,10 7.328,15 7.32799,15 8.18759,12.3646 8.18758,12.36461 8.64347,8.68982 8.64347,8.68982 6.71992,4.76189 6.71992,4.76188 9.57689,4.87589 9.57688,4.87589 7.7032,1.8078 7.70319,1.8078 14.5,-0.0859 14.5,-0.0859 7.23263,-2.55887 7.23264,-2.55887 4.26736,-2.51581 4.26737,-2.5158 4.12825,-3.00747 4.12825,-3.00748 6.87175,-8.7348 6.87175,-8.73481 5.31263,-6.34712 5.31262,-6.34711 h 5.09236 5.09237 l -1.65499,1.82874 -1.65499,1.82874 v 0.93338 0.93338 l -2.42547,7.64212 -2.42548,7.64212 -3.45027,7.46765 -3.45026,7.46765 -3.99397,5.87811 -3.99398,5.87811 -4.73494,5.26333 -4.73495,5.26334 -8.14534,6.55636 -8.14534,6.55637 -9,4.40755 -9,4.40754 -8,2.04868 -8,2.04867 -8.5,0.41817 -8.5,0.41817 z m 92.43612,-26.63467 -4.48038,-0.4621 -1.26962,-1.05369 -1.26962,-1.05369 v -1.42301 -1.42301 l 2.33551,-2.33551 2.33551,-2.33551 3.58885,-4.37972 3.58886,-4.37973 3.54242,-7.39178 3.54241,-7.39179 1.00847,2.65248 1.00847,2.65247 h 1.05799 1.058 l 5.21676,-2.62949 5.21675,-2.62949 7.32054,-5.04417 7.32053,-5.04417 5.8561,-6.39089 5.85609,-6.3909 3.99894,-8.18544 3.99893,-8.18545 1.52719,-4.64578 1.52718,-4.64577 2.11358,-10.35423 2.11358,-10.35422 0.5617,-15.5 0.56169,-15.5 -1.18574,-11 -1.18574,-11 -1.94794,-9 -1.94795,-9 -3.01145,-9 -3.01145,-9 -4.73289,-9.24716 -4.73289,-9.24716 -6.34869,-8.97113 -6.34869,-8.97112 -10.16489,-9.78172 -10.16489,-9.78171 -9.48642,-6.31782 -9.48642,-6.31781 -10.682,-5.18219 -10.682,-5.18218 -0.068,-0.64384 -0.068,-0.64384 8.75,-0.69031 8.75,-0.69032 8.5,1.152 8.5,1.152 6.80585,2.35137 6.80585,2.35137 6.8115,4.04663 6.8115,4.04664 8.38265,6.19157 8.38265,6.19157 9,9.19223 9,9.19223 5.75841,8.56757 5.75842,8.56758 3.94333,7.71078 3.94333,7.71078 3.12041,8.62199 3.12041,8.622 4.36843,16 4.36843,16 1.23829,6.5 1.23829,6.5 -0.0537,16.5 -0.0537,16.5 -1.69425,11 -1.69426,11 -2.50282,7.48524 -2.50283,7.48524 -4.6781,7.90543 -4.6781,7.90544 -7.09284,8.10932 -7.09284,8.10933 -10.42352,10 -10.42352,10 -5.98364,3.14269 -5.98364,3.1427 -8.5,2.15719 -8.5,2.1572 -10.5,0.34345 -10.5,0.34346 z m 16.05933,-46.90792 0.0789,-1.91667 0.52522,1.3125 0.52522,1.3125 -0.60417,0.60417 -0.60417,0.60416 z m -1.48967,-74.27221 -0.52875,-0.85555 2.46973,0.47212 2.46974,0.47212 v 0.38343 0.38342 h -1.94098 -1.94098 z m 5.41072,-0.52202 v -0.37755 l 1.75,-1.37245 1.75,-1.37244 -1.37244,1.75 -1.37245,1.75 h -0.37755 -0.37756 z"
         id="path147" /><path
         style="fill:#379164;stroke-width:1.20743"
         d="m 1165.8677,562.81444 -0.8049,-0.80495 v -3.23392 -3.23392 l 2.1518,-1.94742 2.1519,-1.94741 12.6391,-4.39218 12.6393,-4.39219 6.4529,-3.04485 6.4529,-3.04485 7.1258,-6.97256 7.1258,-6.97257 3.0116,-6.46945 3.0117,-6.46945 0.012,-5.41611 0.012,-5.41611 -3.3204,-6.59799 -3.3205,-6.59799 -6.5208,-7.05883 -6.5209,-7.05884 -14.1178,-11.30323 -14.1179,-11.30323 -4.4564,-5.20632 -4.4564,-5.20633 -2.9607,-6.07387 -2.9609,-6.07388 -1.2243,-6.50382 -1.2243,-6.50381 v -6.8261 -6.82611 l 1.8621,-7.14933 1.8623,-7.14932 3.1401,-4.1171 3.1403,-4.11711 6.1664,-2.81127 6.1663,-2.81128 8.452,-1.34045 8.4521,-1.34045 6.0371,0.7297 6.0372,0.7297 8.356,2.57809 8.356,2.5781 5.1014,4.91395 5.1014,4.91396 1.2993,4.75615 1.2992,4.75616 -0.7358,3.09214 -0.7359,3.09215 -1.1889,1.50929 -1.1887,1.50928 h -3.0521 -3.0522 l -9.1762,-9.66692 -9.1761,-9.66692 -5.7953,0.007 -5.7953,0.007 -3.6157,1.86977 -3.6157,1.86977 -2.357,3.86553 -2.357,3.86553 v 5.65669 5.65669 l 1.2879,3.39904 1.2878,3.39904 2.6363,2.86784 2.6363,2.86783 14.4892,10.91698 14.4892,10.91697 8.6367,8.80888 8.6369,8.8089 3.6614,7.32707 3.6613,7.32707 1.4344,6.90587 1.4345,6.90588 -0.6678,7.97362 -0.6677,7.9736 -2.0507,7.11928 -2.0507,7.11927 -2.9657,5.89563 -2.9655,5.89562 -5.5395,5.9221 -5.5394,5.92209 -8.2165,5.4623 -8.2164,5.46233 -9.9893,3.65526 -9.9892,3.65527 -8.8602,1.70402 -8.8601,1.70404 h -6.3333 -6.3335 z m 95.4877,0.13369 -0.9055,-0.93864 v -3.27321 -3.27321 l 1.5093,-1.24067 1.5092,-1.24066 12.2276,-4.24821 12.2275,-4.2482 7.2831,-3.67654 7.2832,-3.67653 7.2744,-6.73485 7.2745,-6.73487 3.0987,-6.2184 3.0989,-6.21842 v -6.62629 -6.6263 l -2.6438,-5.5128 -2.6438,-5.5128 -9.7324,-9.70123 -9.7324,-9.70124 -12.9894,-10.07258 -12.9894,-10.0726 -4.2974,-5.85415 -4.2973,-5.85416 -2.5487,-6.97266 -2.5486,-6.97265 v -12.07431 -12.07431 l 1.9381,-7.05535 1.9382,-7.05535 2.1983,-2.48464 2.1982,-2.48462 7.2446,-3.30695 7.2446,-3.30695 8.452,-1.29827 8.452,-1.29827 8.1114,1.15494 8.1115,1.15493 7.8487,3.14199 7.8485,3.142 4.1962,4.64465 4.1961,4.64465 0.7521,4.00875 0.752,4.00876 -1.2659,3.32953 -1.2659,3.32951 -3.1187,1.18578 -3.1188,1.18578 h -1.4305 -1.4303 l -9.3394,-9.9613 -9.3393,-9.96131 h -5.9886 -5.9888 l -4.1237,3.99689 -4.1238,3.99689 -1.462,4.88005 -1.4621,4.88005 0.7773,4.60116 0.7774,4.60116 3.0796,4.74943 3.0796,4.74944 11.0194,7.34886 11.0195,7.34887 8.0958,6.70419 8.0959,6.70419 6.0531,7.99593 6.0531,7.99594 2.6361,6.81329 2.6361,6.81328 0.5614,11.09271 0.5616,11.09271 -2.6728,8.79944 -2.6727,8.79944 -3.0599,6.06762 -3.0599,6.06761 -8.5953,8.47848 -8.5954,8.47848 -10.2631,5.07984 -10.2632,5.07983 -9.6594,2.54056 -9.6595,2.54057 -10.2632,0.63697 -10.2631,0.63698 z m -379.45574,-85.68803 -7.26515,-1.59665 -6.62031,-2.60339 -6.62031,-2.60339 -3.83044,-2.91328 -3.83043,-2.91327 -3.07051,-6.34904 -3.07051,-6.34904 -1.26643,-8.11292 -1.26643,-8.11293 1.14385,-9.99854 1.14386,-9.99854 1.25193,-5.55052 1.25193,-5.55053 2.41288,-5.62902 2.41288,-5.62902 5.74967,-6.14685 5.74965,-6.14686 5.54357,-2.80913 5.54356,-2.80913 7.15837,-1.81422 7.15838,-1.81423 6.64087,-0.77802 6.64087,-0.77803 10.13683,1.284 10.13683,1.28402 5.28487,3.09715 5.28487,3.09713 2.7912,4.46118 2.79121,4.46117 3.37726,8.8918 3.37725,8.89178 0.95552,4.23664 0.95551,4.23662 -2.87004,2.87004 -2.87004,2.87004 h -36.19157 -36.19156 l -1.93837,1.93837 -1.93839,1.93837 0.78238,2.5895 0.78237,2.58949 2.39164,3.95 2.39164,3.95 4.05712,3.09452 4.05712,3.09451 5.67977,1.70936 5.67978,1.70936 7.35454,-0.001 7.35455,-10e-4 12.13776,-2.94066 12.13776,-2.94066 6.32026,-2.49122 6.32026,-2.49121 h 2.82604 2.82603 l 1.51709,1.82798 1.51709,1.82798 -0.75762,5.52734 -0.7576,5.52735 -3.11021,6.22827 -3.11021,6.22828 -3.84044,4.02996 -3.84044,4.02995 -4.65587,2.3989 -4.65588,2.3989 -8.02215,1.70034 -8.02215,1.70033 -12.07431,-0.10022 -12.0743,-0.10021 z m 42.23534,-73.32344 -0.81176,-2.71672 -2.02325,-3.56963 -2.02325,-3.56963 -5.51398,-2.8376 -5.51398,-2.83758 -6.52341,-0.66846 -6.52341,-0.66845 -4.94921,1.33781 -4.94921,1.33781 -4.04124,2.72339 -4.04124,2.72338 -2.30032,3.93869 -2.30031,3.93869 0.68785,1.7925 0.68785,1.79252 h 25.47531 25.47532 z m 41.84217,73.52071 -1.36264,-1.64187 0.30921,-95.25446 0.30921,-95.25447 10.15975,-0.3539 10.15978,-0.3539 0.9905,1.56133 0.9905,1.56133 0.019,94.956 0.019,94.95601 -1.9099,0.73289 -1.90992,0.7329 h -8.20542 -8.20543 z m 39.07183,0.18172 -0.5949,-1.55843 0.3121,-95.38705 0.312,-95.38704 h 10.2631 10.2632 v 96.59447 96.59448 l -9.9804,0.351 -9.9803,0.35099 z m 68.2491,0.31423 -11.4706,-0.74783 -4.542,-2.21594 -4.5419,-2.21594 -2.9107,-3.45923 -2.9108,-3.45922 -2.5019,-6.68709 -2.5019,-6.68709 -1.3436,-8.65932 -1.3436,-8.65932 0.7828,-7.31175 0.7828,-7.31176 1.8574,-6.64087 1.8574,-6.64087 4.1124,-7.4091 4.1123,-7.40909 6.8182,-6.23131 6.818,-6.23133 4.4047,-2.24712 4.4047,-2.24714 7.1359,-2.07445 7.1359,-2.07446 29.6544,-0.14947 29.6545,-0.14946 0.3142,54.03254 0.3143,54.03253 -32.3112,-0.19903 -32.3111,-0.19904 z m 47.1107,-33.47031 3.412,-2.01558 1.5396,-2.87673 1.5396,-2.87671 -0.1171,-4.46529 -0.1171,-4.46528 -0.8614,-16.25673 -0.8614,-16.25673 -4.1365,-4.13645 -4.1364,-4.13646 -12.932,0.67441 -12.9318,0.67443 -5.6684,1.99983 -5.6683,1.99984 -5.3993,4.75264 -5.3992,4.75266 -2.5161,5.19733 -2.5159,5.19734 0.012,4.75036 0.012,4.75037 1.3212,4.82973 1.3213,4.82972 5.7509,5.57944 5.7509,5.57944 5.2972,1.87168 5.2974,1.87167 14.3029,0.0954 14.3028,0.0953 z m 262.3011,33.40079 -9.9537,-0.8684 -4.8199,-3.18962 -4.8198,-3.18961 -3.1292,-6.17523 -3.1293,-6.17523 -1.697,-8.00656 -1.6971,-8.00656 v -9.05573 -9.05573 l 1.7848,-7.56958 1.7847,-7.56957 3.1792,-6.2742 3.1794,-6.27418 3.6877,-4.58865 3.6875,-4.58864 6.3652,-4.80581 6.3652,-4.80581 6.3972,-2.30012 6.3973,-2.30012 3.6223,-0.82628 3.6223,-0.82628 27.9204,-0.36429 27.9204,-0.36428 1.3086,0.80878 1.3086,0.80879 0.2078,52.04357 0.2078,52.04355 -0.8315,1.34561 -0.8317,1.34561 -34.0387,-0.17352 -34.0386,-0.1735 z m 53.2624,-34.85727 3.052,-2.86836 0.6605,-3.16879 0.6606,-3.16881 -1.6565,-20.26681 -1.6565,-20.26681 -2.1637,-2.39076 -2.1636,-2.39078 -3.5658,-0.92398 -3.5658,-0.924 -10.0678,0.88273 -10.0678,0.88272 -4.7723,1.28506 -4.7724,1.28507 -5.8408,4.01483 -5.8409,4.01483 -3.6223,5.83366 -3.6222,5.83368 v 7.33927 7.33928 l 3.198,5.43344 3.1981,5.43343 3.9642,2.9184 3.9641,2.91841 5.5115,2.21722 5.5114,2.21722 15.2986,-0.3059 15.2987,-0.3059 z"
         id="path146" /><path
         style="fill:#266704"
         d="m 634.23065,502.9433 -4,-0.3533 -9.5,-1.62846 -9.5,-1.62845 -7.5,-2.43974 -7.5,-2.43975 -8.48513,-3.97497 -8.48513,-3.97497 -11.51487,-7.63226 -11.51487,-7.63225 -11.56842,-11.57243 -11.56841,-11.57242 -6.59409,-10 -6.59408,-10 -7.07979,-14.12969 -7.07979,-14.12968 -3.62072,-9.37032 -3.62071,-9.37031 -2.74875,-9 -2.74876,-9 -1.38824,-7 -1.38824,-7 0.0245,-27 0.0245,-27 1.80276,-10 1.80275,-10 3.91174,-11.81984 3.91173,-11.81984 4.50769,-8.68016 4.50768,-8.68016 4.25333,-5.62752 4.25332,-5.62753 5.00203,-5.40899 5.00204,-5.409 5.68916,-4.63389 5.68916,-4.63388 6.80881,-4.02604 6.8088,-4.02604 7.75523,-3.08905 7.75522,-3.08905 8.10799,-2.01796 8.10798,-2.01796 0.57013,0.57012 0.57012,0.57012 -0.93333,0.89564 -0.93334,0.89563 -6.40419,2.5803 -6.40419,2.58029 -7.09581,4.47418 -7.09581,4.47418 -4.46206,4.18891 -4.46206,4.18891 -5.53794,3.29121 -5.53794,3.29121 -5.74181,4.5613 -5.7418,4.56129 -4.53065,5.74181 -4.53065,5.74181 -4.91185,10.04452 -4.91184,10.04451 -3.5775,11.80249 -3.57749,11.80248 -1.55317,8.653 -1.55317,8.653 -0.56618,20 -0.56618,20 1.10483,10.04732 1.10483,10.04733 2.59008,8.95267 2.59008,8.95268 6.04317,14 6.04317,14 5.27489,10.71098 5.2749,10.71098 5.76843,8.78902 5.76843,8.78902 12.09986,12 12.09986,12 7.6765,5.25912 7.6765,5.25912 10.50405,5.38567 10.50405,5.38567 7.81933,2.54133 7.81933,2.54133 6,1.26542 6,1.26543 11,-0.0755 11,-0.0755 8,-2.14882 8,-2.14881 9,-4.40754 9,-4.40755 8.14534,-6.55637 8.14534,-6.55636 4.73495,-5.26334 4.73494,-5.26333 3.99253,-5.87598 3.99253,-5.87598 3.70386,-8.12402 3.70385,-8.12402 2.21829,-7.5 2.21828,-7.5 0.77649,-1.44048 0.77649,-1.44048 1.06489,-0.35497 1.06489,-0.35496 1.11366,3.19467 1.11367,3.19467 v 2.89061 2.89062 l -2,3.92032 -2,3.92032 v 1.31805 1.31805 l -3.57563,7.4611 -3.57564,7.4611 -3.58886,4.37973 -3.58885,4.37972 -2.33551,2.33551 -2.33551,2.33551 v 1.42301 1.42301 l 1.58494,1.31538 1.58494,1.31539 14.16506,0.0417 14.16506,0.0417 9,-2.33816 9,-2.33815 5.98364,-3.14654 5.98364,-3.14653 10.42352,-10 10.42352,-10 7.09284,-8.10933 7.09284,-8.10932 4.6781,-7.90544 4.6781,-7.90543 2.50283,-7.48524 2.50282,-7.48524 1.69426,-11 1.69425,-11 0.0537,-16.5 0.0537,-16.5 -1.23829,-6.5 -1.23829,-6.5 -4.36843,-16 -4.36843,-16 -3.12041,-8.622 -3.12041,-8.62199 -3.94333,-7.71078 -3.94333,-7.71078 -5.75842,-8.56758 -5.75841,-8.56757 -9,-9.19223 -9,-9.19223 -8.38265,-6.19157 -8.38265,-6.19157 -6.8115,-4.04664 -6.8115,-4.04663 -6.8702,-2.38922 -6.8702,-2.38922 -9.43565,-1.15617 -9.43565,-1.15616 -8,0.87617 -8,0.87617 -16,-0.5 -16,-0.5 7,-2.20936 7,-2.20936 8.88099,-1.54064 8.88099,-1.54064 9.61901,0.0349 9.61901,0.0349 7.5,1.34706 7.5,1.34705 8,2.68496 8,2.68496 8.16345,4.43829 8.16346,4.4383 8.28755,6.2448 8.28756,6.24481 8.56251,8.5 8.56251,8.5 6.62465,8.85066 6.62466,8.85066 4.17177,7.64934 4.17177,7.64934 3.05762,6.93547 3.05762,6.93547 3.2832,9.56453 3.28321,9.56453 2.54382,11.5 2.54382,11.5 1.05541,9.71059 1.05541,9.71058 -0.0183,9.78942 -0.0183,9.78941 -1.4531,10.22147 -1.45311,10.22148 -2.1062,8.27852 -2.10621,8.27853 -3.90132,8.34352 -3.90133,8.34352 -4.73149,6.65648 -4.73149,6.65648 -6.91076,7.32587 -6.91075,7.32588 -10.19621,9.69696 -10.1962,9.69695 -6.55463,3.22684 -6.55464,3.22683 -7.87796,2.07748 -7.87796,2.07747 -21.24989,0.55497 -21.2499,0.55498 -7.20979,5.46215 -7.2098,5.46216 -7.54031,3.77953 -7.54031,3.77953 -7.3096,2.6262 -7.30959,2.6262 h -2.73031 -2.7303 l -5.4601,1.47519 -5.4601,1.4752 -2,0.37596 -2,0.37596 z m 98.16667,-156.01567 -0.66667,-0.66666 -0.0198,-10.08334 -0.0198,-10.08333 -0.9901,-7 -0.99011,-7 -4.5699,-15.83685 -4.56991,-15.83685 0.39142,-0.39142 0.39142,-0.39142 5.28339,14.22827 5.28338,14.22827 3.5133,10.45026 3.51331,10.45026 0.53304,7.77698 0.53305,7.77698 -1.26378,1.52276 -1.26378,1.52276 h -2.21089 -2.21088 z"
         id="path145" /></g></g></svg>
